<?xml version="1.0" encoding="UTF-8"?>
<!DOCTYPE svg PUBLIC "-//W3C//DTD SVG 1.1//EN" "http://www.w3.org/Graphics/SVG/1.1/DTD/svg11.dtd">
<svg version="1.1" xmlns="http://www.w3.org/2000/svg" xmlns:xlink="http://www.w3.org/1999/xlink" x="0px" y="0px" width="250" height="250" viewBox="0, 0, 250, 250">
  <g id="g3281">
    <path d="M49.011,164.207 C48.019,159.02 49.565,156.058 51.262,154.093 C52.958,152.129 54.806,151.162 54.418,149.966 C54.029,148.77 51.966,149.074 49.438,148.482 C46.911,147.89 43.919,146.403 41.673,141.623 C39.907,137.867 37.57,132.573 34.686,125.171 C31.802,117.769 28.372,108.258 24.421,96.068 C34.795,88.531 43.166,82.855 49.852,78.562 C56.539,74.27 61.542,71.361 65.178,69.36 C69.804,66.814 73.099,67.369 75.492,68.375 C77.885,69.382 79.375,70.841 80.392,70.102 C81.41,69.362 80.483,67.494 80.265,64.908 C80.047,62.321 80.537,59.016 84.388,55.403 C87.415,52.563 91.728,48.704 97.874,43.672 C104.021,38.641 112.003,32.437 122.368,24.906 C132.734,32.437 140.715,38.641 146.862,43.672 C153.009,48.704 157.321,52.563 160.348,55.403 C164.2,59.016 164.69,62.321 164.472,64.908 C164.254,67.494 163.327,69.362 164.344,70.102 C165.362,70.841 166.852,69.382 169.245,68.375 C171.637,67.369 174.932,66.814 179.559,69.36 C183.195,71.361 188.197,74.27 194.884,78.562 C201.571,82.855 209.942,88.531 220.316,96.068 C216.364,108.258 212.934,117.769 210.05,125.171 C207.167,132.573 204.829,137.867 203.064,141.623 C200.818,146.403 197.826,147.89 195.298,148.482 C192.771,149.074 190.708,148.77 190.319,149.966 C189.931,151.162 191.778,152.129 193.475,154.093 C195.172,156.058 196.718,159.02 195.726,164.207 C194.947,168.283 193.726,173.94 191.71,181.626 C189.694,189.312 186.882,199.027 182.92,211.222 C170.105,211.231 160,210.908 152.069,210.453 C144.138,209.997 138.381,209.41 134.263,208.892 C129.023,208.233 126.684,205.847 125.34,203.626 C123.996,201.405 123.647,199.349 122.39,199.349 C121.133,199.349 120.784,201.405 119.44,203.626 C118.096,205.847 115.757,208.233 110.517,208.892 C106.399,209.41 100.642,209.997 92.709,210.453 C84.775,210.908 74.664,211.231 61.838,211.222 C57.866,199.027 55.048,189.312 53.03,181.626 C51.011,173.94 49.79,168.283 49.011,164.207 z" fill="#CC0000"/>
    <path d="M157.618,159.42 L136.98,138.275 L143.632,131.783 L140.199,128.267 L122.321,145.714 L125.749,149.234 L132.634,142.512 L153.278,163.659 L121.577,194.594 L100.937,173.446 L104.545,169.929 L79.944,144.716 L76.332,148.238 L55.697,127.089 L87.398,96.153 L108.034,117.299 L101.145,124.02 L105.37,128.349 L123.254,110.9 L119.031,106.571 L112.375,113.066 L91.738,91.917 L123.208,61.211 L143.841,82.358 L140.237,85.88 L164.838,111.091 L168.448,107.569 L189.084,128.719 L157.618,159.42 z" fill="#FFFFFF"/>
  </g>
  <defs/>
</svg>
